<svg xmlns="http://www.w3.org/2000/svg" width="1889" height="1275" viewBox="0 0 1889 1275">
  <g id="Group_1" data-name="Group 1" transform="translate(-297 -541)">
    <circle id="Oval_2" data-name="Oval 2" cx="133" cy="133" r="133" transform="translate(1304 541)" fill="#9cb0c0"/>
    <g id="Tile_Page" data-name="Tile/Page" transform="translate(1292 574)">
      <g id="Tile_Page-2" data-name="Tile/Page">
        <rect id="Base" width="290" height="200" rx="10" fill="#fff"/>
        <path id="Header" d="M10,0H280a10,10,0,0,1,10,10V33a0,0,0,0,1,0,0H0a0,0,0,0,1,0,0V10A10,10,0,0,1,10,0Z" fill="#e0eaf2"/>
        <rect id="Outline" width="290" height="200" rx="10" fill="none" stroke="#e0eaf2" stroke-miterlimit="10" stroke-width="4"/>
        <circle id="Oval" cx="5" cy="5" r="5" transform="translate(12 11)" fill="#9cb0c0"/>
        <circle id="Oval-2" data-name="Oval" cx="5" cy="5" r="5" transform="translate(28 11)" fill="#9cb0c0"/>
        <circle id="Oval-3" data-name="Oval" cx="5" cy="5" r="5" transform="translate(44 11)" fill="#9cb0c0"/>
        <text id="Text" transform="translate(145 120)" font-size="16" font-family="Manrope-Bold, Manrope" font-weight="700"><tspan x="-43.608" y="0">Home Page</tspan></text>
      </g>
    </g>
    <g id="Tile_Page_Copy_4" data-name="Tile/Page Copy 4" transform="translate(1894 1174)">
      <g id="Tile_Page-3" data-name="Tile/Page">
        <rect id="Base-2" data-name="Base" width="290" height="200" rx="10" fill="#fff"/>
        <path id="Header-2" data-name="Header" d="M10,0H280a10,10,0,0,1,10,10V33a0,0,0,0,1,0,0H0a0,0,0,0,1,0,0V10A10,10,0,0,1,10,0Z" fill="#e0eaf2"/>
        <rect id="Outline-2" data-name="Outline" width="290" height="200" rx="10" fill="none" stroke="#e0eaf2" stroke-miterlimit="10" stroke-width="4"/>
        <circle id="Oval-4" data-name="Oval" cx="5" cy="5" r="5" transform="translate(12 11)" fill="#9cb0c0"/>
        <circle id="Oval-5" data-name="Oval" cx="5" cy="5" r="5" transform="translate(28 11)" fill="#9cb0c0"/>
        <circle id="Oval-6" data-name="Oval" cx="5" cy="5" r="5" transform="translate(44 11)" fill="#9cb0c0"/>
        <text id="Text-2" data-name="Text" transform="translate(145 120)" font-size="16" font-family="Manrope-Bold, Manrope" font-weight="700"><tspan x="-21.388" y="0">Login</tspan></text>
      </g>
    </g>
    <g id="Tile_Page_Copy_5" data-name="Tile/Page Copy 5" transform="translate(1894 1524)">
      <g id="Tile_Page-4" data-name="Tile/Page">
        <rect id="Base-3" data-name="Base" width="290" height="200" rx="10" fill="#fff"/>
        <path id="Header-3" data-name="Header" d="M10,0H280a10,10,0,0,1,10,10V33a0,0,0,0,1,0,0H0a0,0,0,0,1,0,0V10A10,10,0,0,1,10,0Z" fill="#e0eaf2"/>
        <rect id="Outline-3" data-name="Outline" width="290" height="200" rx="10" fill="none" stroke="#e0eaf2" stroke-miterlimit="10" stroke-width="4"/>
        <circle id="Oval-7" data-name="Oval" cx="5" cy="5" r="5" transform="translate(12 11)" fill="#9cb0c0"/>
        <circle id="Oval-8" data-name="Oval" cx="5" cy="5" r="5" transform="translate(28 11)" fill="#9cb0c0"/>
        <circle id="Oval-9" data-name="Oval" cx="5" cy="5" r="5" transform="translate(44 11)" fill="#9cb0c0"/>
        <text id="Text-3" data-name="Text" transform="translate(145 120)" font-size="16" font-family="Manrope-Bold, Manrope" font-weight="700"><tspan x="-76.96" y="0">Forgotten password</tspan></text>
      </g>
    </g>
    <g id="Tile_Page_Copy" data-name="Tile/Page Copy" transform="translate(690 844)">
      <g id="Tile_Page-5" data-name="Tile/Page">
        <rect id="Base-4" data-name="Base" width="290" height="200" rx="10" fill="#fff"/>
        <path id="Header-4" data-name="Header" d="M10,0H280a10,10,0,0,1,10,10V33a0,0,0,0,1,0,0H0a0,0,0,0,1,0,0V10A10,10,0,0,1,10,0Z" fill="#e0eaf2"/>
        <rect id="Outline-4" data-name="Outline" width="290" height="200" rx="10" fill="none" stroke="#e0eaf2" stroke-miterlimit="10" stroke-width="4"/>
        <circle id="Oval-10" data-name="Oval" cx="5" cy="5" r="5" transform="translate(12 11)" fill="#9cb0c0"/>
        <circle id="Oval-11" data-name="Oval" cx="5" cy="5" r="5" transform="translate(28 11)" fill="#9cb0c0"/>
        <circle id="Oval-12" data-name="Oval" cx="5" cy="5" r="5" transform="translate(44 11)" fill="#9cb0c0"/>
        <text id="Text-4" data-name="Text" transform="translate(145 120)" font-size="16" font-family="Manrope-Bold, Manrope" font-weight="700"><tspan x="-32.852" y="0">Register</tspan></text>
      </g>
    </g>
    <g id="Tile_Page_Copy_2" data-name="Tile/Page Copy 2" transform="translate(690 1174)">
      <g id="Tile_Page-6" data-name="Tile/Page">
        <rect id="Base-5" data-name="Base" width="290" height="200" rx="10" fill="#fff"/>
        <path id="Header-5" data-name="Header" d="M10,0H280a10,10,0,0,1,10,10V33a0,0,0,0,1,0,0H0a0,0,0,0,1,0,0V10A10,10,0,0,1,10,0Z" fill="#e0eaf2"/>
        <rect id="Outline-5" data-name="Outline" width="290" height="200" rx="10" fill="none" stroke="#e0eaf2" stroke-miterlimit="10" stroke-width="4"/>
        <circle id="Oval-13" data-name="Oval" cx="5" cy="5" r="5" transform="translate(12 11)" fill="#9cb0c0"/>
        <circle id="Oval-14" data-name="Oval" cx="5" cy="5" r="5" transform="translate(28 11)" fill="#9cb0c0"/>
        <circle id="Oval-15" data-name="Oval" cx="5" cy="5" r="5" transform="translate(44 11)" fill="#9cb0c0"/>
        <text id="Text-5" data-name="Text" transform="translate(145 120)" font-size="16" font-family="Manrope-Bold, Manrope" font-weight="700"><tspan x="-25.612" y="0">Profile</tspan></text>
      </g>
    </g>
    <g id="Tile_Page_Copy_3" data-name="Tile/Page Copy 3" transform="translate(300 1174)">
      <g id="Tile_Page-7" data-name="Tile/Page">
        <rect id="Base-6" data-name="Base" width="290" height="200" rx="10" fill="#fff"/>
        <path id="Header-6" data-name="Header" d="M10,0H280a10,10,0,0,1,10,10V33a0,0,0,0,1,0,0H0a0,0,0,0,1,0,0V10A10,10,0,0,1,10,0Z" fill="#e0eaf2"/>
        <rect id="Outline-6" data-name="Outline" width="290" height="200" rx="10" fill="none" stroke="#e0eaf2" stroke-miterlimit="10" stroke-width="4"/>
        <circle id="Oval-16" data-name="Oval" cx="5" cy="5" r="5" transform="translate(12 11)" fill="#9cb0c0"/>
        <circle id="Oval-17" data-name="Oval" cx="5" cy="5" r="5" transform="translate(28 11)" fill="#9cb0c0"/>
        <circle id="Oval-18" data-name="Oval" cx="5" cy="5" r="5" transform="translate(44 11)" fill="#9cb0c0"/>
        <text id="Text-6" data-name="Text" transform="translate(145 120)" font-size="16" font-family="Manrope-Bold, Manrope" font-weight="700"><tspan x="-31.72" y="0">Support</tspan></text>
      </g>
    </g>
    <g id="Tile_Subpage" data-name="Tile/Subpage" transform="translate(1407 874)">
      <g id="Tile_Subpage-2" data-name="Tile/Subpage">
        <rect id="Base-7" data-name="Base" width="170" height="140" rx="10" fill="#fff"/>
        <path id="Header-7" data-name="Header" d="M10,0H160a10,10,0,0,1,10,10V33a0,0,0,0,1,0,0H0a0,0,0,0,1,0,0V10A10,10,0,0,1,10,0Z" fill="#e0eaf2"/>
        <rect id="Outline-7" data-name="Outline" width="170" height="140" rx="10" fill="none" stroke="#e0eaf2" stroke-miterlimit="10" stroke-width="4"/>
        <circle id="Oval-19" data-name="Oval" cx="5" cy="5" r="5" transform="translate(12 11)" fill="#9cb0c0"/>
        <circle id="Oval-20" data-name="Oval" cx="5" cy="5" r="5" transform="translate(28 11)" fill="#9cb0c0"/>
        <circle id="Oval-21" data-name="Oval" cx="5" cy="5" r="5" transform="translate(44 11)" fill="#9cb0c0"/>
        <text id="Text-7" data-name="Text" transform="translate(85 88)" font-size="16" font-family="Manrope-Bold, Manrope" font-weight="700"><tspan x="-27.324" y="0">Search</tspan></text>
      </g>
    </g>
    <g id="Tile_Subpage_Copy_3" data-name="Tile/Subpage Copy 3" transform="translate(418 1474)">
      <g id="Tile_Subpage-3" data-name="Tile/Subpage">
        <rect id="Base-8" data-name="Base" width="170" height="140" rx="10" fill="#fff"/>
        <path id="Header-8" data-name="Header" d="M10,0H160a10,10,0,0,1,10,10V33a0,0,0,0,1,0,0H0a0,0,0,0,1,0,0V10A10,10,0,0,1,10,0Z" fill="#e0eaf2"/>
        <rect id="Outline-8" data-name="Outline" width="170" height="140" rx="10" fill="none" stroke="#e0eaf2" stroke-miterlimit="10" stroke-width="4"/>
        <circle id="Oval-22" data-name="Oval" cx="5" cy="5" r="5" transform="translate(12 11)" fill="#9cb0c0"/>
        <circle id="Oval-23" data-name="Oval" cx="5" cy="5" r="5" transform="translate(28 11)" fill="#9cb0c0"/>
        <circle id="Oval-24" data-name="Oval" cx="5" cy="5" r="5" transform="translate(44 11)" fill="#9cb0c0"/>
        <text id="Text-8" data-name="Text" transform="translate(85 88)" font-size="16" font-family="Manrope-Bold, Manrope" font-weight="700"><tspan x="-18.984" y="0">Chat</tspan></text>
      </g>
    </g>
    <g id="Tile_Subpage_Copy" data-name="Tile/Subpage Copy" transform="translate(1407 1074)">
      <g id="Tile_Subpage-4" data-name="Tile/Subpage">
        <rect id="Base-9" data-name="Base" width="170" height="140" rx="10" fill="#fff"/>
        <path id="Header-9" data-name="Header" d="M10,0H160a10,10,0,0,1,10,10V33a0,0,0,0,1,0,0H0a0,0,0,0,1,0,0V10A10,10,0,0,1,10,0Z" fill="#e0eaf2"/>
        <rect id="Outline-9" data-name="Outline" width="170" height="140" rx="10" fill="none" stroke="#e0eaf2" stroke-miterlimit="10" stroke-width="4"/>
        <circle id="Oval-25" data-name="Oval" cx="5" cy="5" r="5" transform="translate(12 11)" fill="#9cb0c0"/>
        <circle id="Oval-26" data-name="Oval" cx="5" cy="5" r="5" transform="translate(28 11)" fill="#9cb0c0"/>
        <circle id="Oval-27" data-name="Oval" cx="5" cy="5" r="5" transform="translate(44 11)" fill="#9cb0c0"/>
        <text id="Text-9" data-name="Text" transform="translate(85 88)" font-size="16" font-family="Manrope-Bold, Manrope" font-weight="700"><tspan x="-19.56" y="0">Offer</tspan></text>
      </g>
    </g>
    <g id="Tile_Subpage_Copy_2" data-name="Tile/Subpage Copy 2" transform="translate(1407 1274)">
      <g id="Tile_Subpage-5" data-name="Tile/Subpage">
        <rect id="Base-10" data-name="Base" width="170" height="140" rx="10" fill="#fff"/>
        <path id="Header-10" data-name="Header" d="M10,0H160a10,10,0,0,1,10,10V33a0,0,0,0,1,0,0H0a0,0,0,0,1,0,0V10A10,10,0,0,1,10,0Z" fill="#e0eaf2"/>
        <rect id="Outline-10" data-name="Outline" width="170" height="140" rx="10" fill="none" stroke="#e0eaf2" stroke-miterlimit="10" stroke-width="4"/>
        <circle id="Oval-28" data-name="Oval" cx="5" cy="5" r="5" transform="translate(12 11)" fill="#9cb0c0"/>
        <circle id="Oval-29" data-name="Oval" cx="5" cy="5" r="5" transform="translate(28 11)" fill="#9cb0c0"/>
        <circle id="Oval-30" data-name="Oval" cx="5" cy="5" r="5" transform="translate(44 11)" fill="#9cb0c0"/>
        <text id="Text-10" data-name="Text" transform="translate(85 88)" font-size="16" font-family="Montserrat-Bold, Montserrat" font-weight="700"><tspan x="-28.96" y="0">Pricing</tspan></text>
      </g>
    </g>
    <g id="Tile_External_Link_Copy" data-name="Tile/External Link Copy" transform="translate(448 1674)">
      <g id="Tile_External_Link" data-name="Tile/External Link">
        <rect id="Base-11" data-name="Base" width="140" height="140" rx="10" fill="#fff"/>
        <rect id="Outline-11" data-name="Outline" width="140" height="140" rx="10" fill="none" stroke="#e0eaf2" stroke-miterlimit="10" stroke-width="4"/>
        <path id="Icon" d="M9.977,5.161l-7.4,7.4A1.512,1.512,0,1,1,.443,10.419l7.4-7.4h-4.9A1.512,1.512,0,1,1,2.937,0h8.551A1.512,1.512,0,0,1,13,1.512v8.551a1.512,1.512,0,1,1-3.023,0Z" transform="translate(111 16)" fill="#9cb0c0"/>
        <text id="Text-11" data-name="Text" transform="translate(70 76)" font-size="16" font-family="Manrope-Bold, Manrope" font-weight="700"><tspan x="-49.64" y="0">External Link</tspan></text>
      </g>
    </g>
    <g id="Tile_Modal" data-name="Tile/Modal" transform="translate(1969 604)">
      <g id="Tile_Modal-2" data-name="Tile/Modal">
        <rect id="Base-12" data-name="Base" width="140" height="140" rx="10" fill="#e0eaf2"/>
        <path id="Icon-2" data-name="Icon" d="M12.439,14.561,7.5,9.622,2.561,14.561A1.5,1.5,0,0,1,.439,12.439L5.378,7.5.439,2.561A1.5,1.5,0,0,1,2.561.439L7.5,5.378,12.439.439a1.5,1.5,0,0,1,2.122,2.121L9.622,7.5l4.939,4.939a1.5,1.5,0,0,1-2.122,2.122Z" transform="translate(110 15)" fill="#9cb0c0"/>
        <text id="Text-12" data-name="Text" transform="translate(70.5 76)" font-size="16" font-family="Manrope-Bold, Manrope" font-weight="700"><tspan x="-23.572" y="0">Modal</tspan></text>
      </g>
    </g>
    <g id="Line_Right_Down_Turn_Add_Copy" data-name="Line/Right Down Turn Add Copy" transform="translate(1576 668)">
      <path id="Path" d="M0,54H393.45" transform="translate(2.775 -48)" stroke="#54ff00" stroke-linecap="round" stroke-miterlimit="10" stroke-width="4"/>
      <g id="B" transform="translate(388)">
        <path id="Triangle" d="M0,1.766A1,1,0,0,1,1.514.909L8.571,5.143a1,1,0,0,1,0,1.715L1.514,11.091A1,1,0,0,1,0,10.234Z" transform="translate(1)"/>
      </g>
      <g id="A" transform="translate(12 12) rotate(180)">
        <path id="Circle" d="M5.5,11A5.5,5.5,0,1,1,11,5.5,5.5,5.5,0,0,1,5.5,11Z" transform="translate(0.5 0.5)"/>
      </g>
    </g>
    <g id="Line_Down_Right_Default" data-name="Line/Down Right Default" transform="translate(1292 774)">
      <path id="Path-2" data-name="Path" d="M0,0V152.5C0,169.345,8.208,183,18.333,183H110" transform="translate(0)" fill="none" stroke="#ff3f5d" stroke-linecap="round" stroke-miterlimit="10" stroke-width="4"/>
      <g id="B-2" data-name="B" transform="translate(104 177)">
        <path id="Triangle-2" data-name="Triangle" d="M0,1.766A1,1,0,0,1,1.514.909L8.571,5.143a1,1,0,0,1,0,1.715L1.514,11.091A1,1,0,0,1,0,10.234Z" transform="translate(1)" fill="#ff3f5d"/>
      </g>
      <g id="A-2" data-name="A" transform="translate(-6 -6)">
        <path id="Circle-2" data-name="Circle" d="M5.5,11A5.5,5.5,0,1,1,11,5.5,5.5,5.5,0,0,1,5.5,11Z" transform="translate(0.5 0.5)" fill="#ff3f5d"/>
      </g>
    </g>
    <g id="Line_Down_Right_Default_Copy_3" data-name="Line/Down Right Default Copy 3" transform="translate(303 1374)">
      <path id="Path-3" data-name="Path" d="M0,0V152.5C0,169.345,8.208,183,18.333,183H110" transform="translate(0)" fill="none" stroke="#ff3f5d" stroke-linecap="round" stroke-miterlimit="10" stroke-width="4"/>
      <g id="B-3" data-name="B" transform="translate(104 177)">
        <path id="Triangle-3" data-name="Triangle" d="M0,1.766A1,1,0,0,1,1.514.909L8.571,5.143a1,1,0,0,1,0,1.715L1.514,11.091A1,1,0,0,1,0,10.234Z" transform="translate(1)" fill="#ff3f5d"/>
      </g>
      <g id="A-3" data-name="A" transform="translate(-6 -6)">
        <path id="Circle-3" data-name="Circle" d="M5.5,11A5.5,5.5,0,1,1,11,5.5,5.5,5.5,0,0,1,5.5,11Z" transform="translate(0.5 0.5)" fill="#ff3f5d"/>
      </g>
    </g>
    <g id="Line_Down_Right_Default_Copy" data-name="Line/Down Right Default Copy" transform="translate(1292 918)">
      <path id="Path-4" data-name="Path" d="M0,0V188.333C0,209.136,8.208,226,18.333,226H110" transform="translate(0)" fill="none" stroke="#ff3f5d" stroke-linecap="round" stroke-miterlimit="10" stroke-width="4"/>
      <g id="B-4" data-name="B" transform="translate(104 220)">
        <path id="Triangle-4" data-name="Triangle" d="M0,1.766A1,1,0,0,1,1.514.909L8.571,5.143a1,1,0,0,1,0,1.715L1.514,11.091A1,1,0,0,1,0,10.234Z" transform="translate(1)" fill="#ff3f5d"/>
      </g>
    </g>
    <g id="Line_Down_Right_Default_Copy_4" data-name="Line/Down Right Default Copy 4" transform="translate(303 1518)">
      <path id="Path-5" data-name="Path" d="M0,0V188.333C0,209.136,10.521,226,23.5,226H141" transform="translate(0)" fill="none" stroke="#ff3f5d" stroke-linecap="round" stroke-miterlimit="10" stroke-width="4"/>
      <g id="B-5" data-name="B" transform="translate(135 220)">
        <path id="Triangle-5" data-name="Triangle" d="M0,1.766A1,1,0,0,1,1.514.909L8.571,5.143a1,1,0,0,1,0,1.715L1.514,11.091A1,1,0,0,1,0,10.234Z" transform="translate(1)" fill="#ff3f5d"/>
      </g>
    </g>
    <g id="Line_Down_Right_Default_Copy_2" data-name="Line/Down Right Default Copy 2" transform="translate(1292 1118)">
      <path id="Path-6" data-name="Path" d="M0,0V188.333C0,209.136,8.208,226,18.333,226H110" transform="translate(0)" fill="none" stroke="#ff3f5d" stroke-linecap="round" stroke-miterlimit="10" stroke-width="4"/>
      <g id="B-6" data-name="B" transform="translate(104 220)">
        <path id="Triangle-6" data-name="Triangle" d="M0,1.766A1,1,0,0,1,1.514.909L8.571,5.143a1,1,0,0,1,0,1.715L1.514,11.091A1,1,0,0,1,0,10.234Z" transform="translate(1)" fill="#ff3f5d"/>
      </g>
    </g>
    <g id="Line_Left_Down_Snake" data-name="Line/Left Down Snake" transform="translate(980 674)">
      <path id="Path-7" data-name="Path" d="M312,0H208c-28.719,0-52,20.147-52,45V225c0,24.853-23.281,45-52,45H0" transform="translate(0 0)" fill="none" stroke="#ff3f5d" stroke-linecap="round" stroke-miterlimit="10" stroke-width="4"/>
      <g id="B-7" data-name="B" transform="translate(6 276) rotate(180)">
        <path id="Triangle-7" data-name="Triangle" d="M0,1.766A1,1,0,0,1,1.514.909L8.571,5.143a1,1,0,0,1,0,1.715L1.514,11.091A1,1,0,0,1,0,10.234Z" transform="translate(1)" fill="#ff3f5d"/>
      </g>
      <g id="A-4" data-name="A" transform="translate(306 -6)">
        <path id="Circle-4" data-name="Circle" d="M5.5,11A5.5,5.5,0,1,1,11,5.5,5.5,5.5,0,0,1,5.5,11Z" transform="translate(0.5 0.5)" fill="#ff3f5d"/>
      </g>
    </g>
    <g id="Line_Down_Default" data-name="Line/Down Default" transform="translate(775 1044)">
      <path id="Path-8" data-name="Path" d="M1,0V130" transform="translate(59)" fill="none" stroke="#ff3f5d" stroke-linecap="round" stroke-miterlimit="10" stroke-width="4"/>
      <g id="B-8" data-name="B" transform="translate(66 124) rotate(90)">
        <path id="Triangle-8" data-name="Triangle" d="M0,1.766A1,1,0,0,1,1.514.909L8.571,5.143a1,1,0,0,1,0,1.715L1.514,11.091A1,1,0,0,1,0,10.234Z" transform="translate(1)" fill="#ff3f5d"/>
      </g>
      <g id="A-5" data-name="A" transform="translate(54 6) rotate(-90)">
        <path id="Circle-5" data-name="Circle" d="M5.5,11A5.5,5.5,0,1,1,11,5.5,5.5,5.5,0,0,1,5.5,11Z" transform="translate(0.5 0.5)" fill="#ff3f5d"/>
      </g>
    </g>
    <g id="Line_Down_Default_Copy" data-name="Line/Down Default Copy" transform="translate(1979 1374)">
      <path id="Path-9" data-name="Path" d="M1,0V150" transform="translate(59)" fill="none" stroke="#ff3f5d" stroke-linecap="round" stroke-miterlimit="10" stroke-width="4"/>
      <g id="B-9" data-name="B" transform="translate(66 144) rotate(90)">
        <path id="Triangle-9" data-name="Triangle" d="M0,1.766A1,1,0,0,1,1.514.909L8.571,5.143a1,1,0,0,1,0,1.715L1.514,11.091A1,1,0,0,1,0,10.234Z" transform="translate(1)" fill="#ff3f5d"/>
      </g>
      <g id="A-6" data-name="A" transform="translate(54 6) rotate(-90)">
        <path id="Circle-6" data-name="Circle" d="M5.5,11A5.5,5.5,0,1,1,11,5.5,5.5,5.5,0,0,1,5.5,11Z" transform="translate(0.5 0.5)" fill="#ff3f5d"/>
      </g>
    </g>
    <g id="Status" transform="translate(1987.146 1397.146)">
      <rect id="Base-13" data-name="Base" width="73.333" height="73.333" rx="10" transform="translate(0 51.854) rotate(-45)" fill="#ff3f5d"/>
      <text id="Status-2" data-name="Status" transform="translate(51.854 55.854)" fill="#fff" font-size="11" font-family="Manrope-Bold, Manrope" font-weight="700"><tspan x="-32.948" y="0">Can&apos;t log in?</tspan></text>
    </g>
    <g id="Line_Left_Down_Default" data-name="Line/Left Down Default" transform="translate(445 1031)">
      <path id="Path-10" data-name="Path" d="M245,0H40.833C18.282,0,0,10.447,0,23.333V140" fill="none" stroke="#ff3f5d" stroke-linecap="round" stroke-miterlimit="10" stroke-width="4"/>
      <g id="B-10" data-name="B" transform="translate(6 134) rotate(90)">
        <path id="Triangle-10" data-name="Triangle" d="M0,1.766A1,1,0,0,1,1.514.909L8.571,5.143a1,1,0,0,1,0,1.715L1.514,11.091A1,1,0,0,1,0,10.234Z" transform="translate(1)" fill="#ff3f5d"/>
      </g>
      <g id="A-7" data-name="A" transform="translate(239 -6)">
        <path id="Circle-7" data-name="Circle" d="M5.5,11A5.5,5.5,0,1,1,11,5.5,5.5,5.5,0,0,1,5.5,11Z" transform="translate(0.5 0.5)" fill="#ff3f5d"/>
      </g>
    </g>
    <g id="Success" transform="translate(808 1082)">
      <circle id="Base-14" data-name="Base" cx="27.5" cy="27.5" r="27.5" fill="#13d58f"/>
      <path id="Shape" d="M16.439.439a1.5,1.5,0,0,1,2.121,2.121l-11,11a1.5,1.5,0,0,1-2.121,0l-5-5A1.5,1.5,0,0,1,2.561,6.439L6.5,10.379Z" transform="translate(18 21)" fill="#fff"/>
    </g>
    <g id="Error" transform="translate(418 1082)">
      <circle id="Base-15" data-name="Base" cx="27.5" cy="27.5" r="27.5" fill="#e12340"/>
      <path id="Shape-2" data-name="Shape" d="M12.439,14.561,7.5,9.622,2.561,14.561A1.5,1.5,0,0,1,.439,12.439L5.378,7.5.439,2.561A1.5,1.5,0,0,1,2.561.439L7.5,5.378,12.439.439a1.5,1.5,0,0,1,2.122,2.121L9.622,7.5l4.939,4.939a1.5,1.5,0,0,1-2.122,2.122Z" transform="translate(20 20)" fill="#fff"/>
    </g>
    <g id="Number" transform="translate(1555 547)">
      <circle id="Base-16" data-name="Base" cx="27.5" cy="27.5" r="27.5" fill="#ff3f5d"/>
      <text id="Number-2" data-name="Number" transform="translate(27.5 33)" fill="#fff" font-size="14" font-family="Montserrat-Bold, Montserrat" font-weight="700"><tspan x="-2.828" y="0">1</tspan></text>
    </g>
    <g id="Number_Add" data-name="Number Add" transform="translate(953 1147)">
      <circle id="Base-17" data-name="Base" cx="27.5" cy="27.5" r="27.5" fill="#9cb0c0"/>
      <text id="Number-3" data-name="Number" transform="translate(27.5 33)" fill="#fff" font-size="14" font-family="Montserrat-Bold, Montserrat" font-weight="700"><tspan x="-4.235" y="0">2</tspan></text>
    </g>
    <g id="Number_Add-2" data-name="Number Add" transform="translate(561 1147)">
      <circle id="Base-18" data-name="Base" cx="27.5" cy="27.5" r="27.5" fill="#9cb0c0"/>
      <text id="Number-4" data-name="Number" transform="translate(27.5 33)" fill="#fff" font-size="14" font-family="Montserrat-Bold, Montserrat" font-weight="700"><tspan x="-4.221" y="0">3</tspan></text>
    </g>
    <g id="Line_Right_Down_Snake" data-name="Line/Right Down Snake" transform="translate(1582 774)">
      <path id="Path-11" data-name="Path" d="M312,500H208c-28.719,0-52-37.31-52-83.333V83.333C156,37.31,132.719,0,104,0H0" transform="translate(0 0)" fill="none" stroke="#ff3f5d" stroke-linecap="round" stroke-miterlimit="10" stroke-width="4"/>
      <g id="B-11" data-name="B" transform="translate(306 494)">
        <path id="Triangle-11" data-name="Triangle" d="M0,1.766A1,1,0,0,1,1.514.909L8.571,5.143a1,1,0,0,1,0,1.715L1.514,11.091A1,1,0,0,1,0,10.234Z" transform="translate(1)" fill="#ff3f5d"/>
      </g>
      <g id="A-8" data-name="A" transform="translate(6 6) rotate(180)">
        <path id="Circle-8" data-name="Circle" d="M5.5,11A5.5,5.5,0,1,1,11,5.5,5.5,5.5,0,0,1,5.5,11Z" transform="translate(0.5 0.5)" fill="#ff3f5d"/>
      </g>
    </g>
  </g>
</svg>
