<svg xmlns="http://www.w3.org/2000/svg" width="464.35" height="135.133" viewBox="0 0 464.35 135.133">
  <g id="Group_624" data-name="Group 624" transform="translate(-139.37 -40)">
    <g id="RamonaWorksFoundationLogo" transform="translate(139.37 40)">
      <g id="rw-logo">
        <g id="rwectangle" transform="translate(58.357 33.556)" opacity="0.05">
          <rect id="Rectangle_1097" data-name="Rectangle 1097" width="405.993" height="67.507" fill="#333" opacity="0.7"/>
        </g>
        <path id="rwb" d="M58.476,0,0,33.754v67.527l58.476,33.773,58.476-33.773V33.754Z" fill="#29abe2"/>
        <path id="rwa" d="M354.256,34.254,295.8.5V135.534l58.456-33.754Z" transform="translate(-237.344 -0.401)" fill="#069"/>
        <path id="black" d="M103.37,61.3,56,88.651v54.7L103.37,170.7l47.37-27.351v-54.7Z" transform="translate(-44.933 -49.186)"/>
        <g id="Group_332" data-name="Group 332" transform="translate(34.307 33.062)">
          <path id="Path_272" data-name="Path 272" d="M205.891,230.223l-13.557-23.774h-3.458l-.059,23.754-15.217-.04.138-62.863,25.967.059a28.29,28.29,0,0,1,12.628,2.609,17.774,17.774,0,0,1,7.727,7.095,20.084,20.084,0,0,1,2.549,10.276,18.31,18.31,0,0,1-3.814,11.64c-2.53,3.2-6.186,5.375-11.007,6.561L222.669,230.3Zm-17-34.188,9.427.02c3.024,0,5.257-.652,6.68-1.976s2.134-3.3,2.154-5.909a7.8,7.8,0,0,0-2.174-5.869c-1.443-1.423-3.656-2.134-6.62-2.154l-9.427-.02Z" transform="translate(-173.6 -167.3)" fill="#e6e6e6"/>
        </g>
        <g id="Group_333" data-name="Group 333" transform="translate(130.45 39.168)">
          <path id="Path_273" data-name="Path 273" d="M674.447,228.344,668.4,217.791h-1.541v10.553H660.1V200.4h11.541a12.353,12.353,0,0,1,5.612,1.146,8.069,8.069,0,0,1,3.439,3.142,8.9,8.9,0,0,1,1.146,4.565,8.064,8.064,0,0,1-1.68,5.178,8.644,8.644,0,0,1-4.881,2.925l6.64,10.988Zm-7.589-15.177h4.19a4.22,4.22,0,0,0,2.964-.889,3.422,3.422,0,0,0,.949-2.628,3.459,3.459,0,0,0-.968-2.609,4.057,4.057,0,0,0-2.945-.949h-4.19v7.075Z" transform="translate(-660.1 -199.965)" fill="#fff"/>
          <path id="Path_274" data-name="Path 274" d="M796.427,224.047H785.953l-1.739,5.1H777.1L787.337,201.4h7.786l10.237,27.746h-7.193Zm-1.739-5.138-3.478-10.276-3.518,10.276Z" transform="translate(-753.978 -200.768)" fill="#fff"/>
          <path id="Path_275" data-name="Path 275" d="M964.722,201.4v27.746h-6.759V211.795l-6.008,17.351h-5.85l-6.047-17.391v17.391H933.3V201.4h8.261l7.549,19.327L956.5,201.4Z" transform="translate(-879.31 -200.768)" fill="#fff"/>
          <path id="Path_276" data-name="Path 276" d="M1132.984,200.038a13.388,13.388,0,0,1,5.079,5.1,15.521,15.521,0,0,1-.02,14.762,13.356,13.356,0,0,1-5.1,5.118,14.765,14.765,0,0,1-14.268,0,13.356,13.356,0,0,1-5.1-5.118,15.449,15.449,0,0,1,0-14.762,13.441,13.441,0,0,1,5.1-5.1,14.842,14.842,0,0,1,14.308,0Zm-12.45,6.6a9.753,9.753,0,0,0,0,11.719,7.467,7.467,0,0,0,10.533,0,9.684,9.684,0,0,0,.02-11.7,7.515,7.515,0,0,0-10.553-.02Z" transform="translate(-1022.454 -198.2)" fill="#fff"/>
          <path id="Path_277" data-name="Path 277" d="M1298.521,228.344h-6.759l-11.3-17.154v17.154H1273.7V200.4h6.759l11.3,17.312V200.4h6.759Z" transform="translate(-1152.44 -199.965)" fill="#fff"/>
          <path id="Path_278" data-name="Path 278" d="M1432.027,224.047h-10.474l-1.739,5.1H1412.7l10.237-27.746h7.786l10.237,27.746h-7.193Zm-1.739-5.138-3.478-10.276-3.518,10.276Z" transform="translate(-1263.97 -200.768)" fill="#fff"/>
          <path id="Path_279" data-name="Path 279" d="M1602.389,200.4l-6.68,27.944h-8.379l-4.466-18.695-4.506,18.695h-8.379L1563.3,200.4h7.352l3.6,20.236,4.9-20.236h7.391l4.9,20.236,3.636-20.236Z" transform="translate(-1384.809 -199.965)" fill="#fff"/>
          <path id="Path_280" data-name="Path 280" d="M1796.184,200.038a13.389,13.389,0,0,1,5.079,5.1,15.521,15.521,0,0,1-.02,14.762,13.356,13.356,0,0,1-5.1,5.118,14.765,14.765,0,0,1-14.268,0,13.355,13.355,0,0,1-5.1-5.118,15.448,15.448,0,0,1,0-14.762,13.44,13.44,0,0,1,5.1-5.1,14.842,14.842,0,0,1,14.308,0Zm-12.45,6.6a9.753,9.753,0,0,0,0,11.719,7.467,7.467,0,0,0,10.533,0,9.684,9.684,0,0,0,.02-11.7,7.515,7.515,0,0,0-10.553-.02Z" transform="translate(-1554.592 -198.2)" fill="#fff"/>
          <path id="Path_281" data-name="Path 281" d="M1951.247,228.344l-6.047-10.553h-1.542v10.553H1936.9V200.4h11.541a12.353,12.353,0,0,1,5.613,1.146,8.068,8.068,0,0,1,3.439,3.142,8.9,8.9,0,0,1,1.146,4.565,8.065,8.065,0,0,1-1.68,5.178,8.645,8.645,0,0,1-4.881,2.925l6.64,10.988Zm-7.589-15.177h4.189a4.219,4.219,0,0,0,2.964-.889,3.422,3.422,0,0,0,.949-2.628,3.459,3.459,0,0,0-.968-2.609,4.058,4.058,0,0,0-2.945-.949h-4.189Z" transform="translate(-1684.577 -199.965)" fill="#fff"/>
          <path id="Path_282" data-name="Path 282" d="M2077.261,214.075l11.264,14.268h-8.181l-9.486-12.529v12.529H2064.1V200.4h6.759v12.292l9.565-12.292h8.1Z" transform="translate(-1786.64 -199.965)" fill="#fff"/>
          <path id="Path_283" data-name="Path 283" d="M2217.682,222.784a7.855,7.855,0,0,1-3.32,2.964,11.8,11.8,0,0,1-5.316,1.107,12.564,12.564,0,0,1-7.747-2.292,8.246,8.246,0,0,1-3.32-6.4h7.193a3.763,3.763,0,0,0,1.126,2.49,3.437,3.437,0,0,0,2.47.909,2.856,2.856,0,0,0,2.055-.711,2.514,2.514,0,0,0,.751-1.9,2.476,2.476,0,0,0-.692-1.779,5.179,5.179,0,0,0-1.719-1.166c-.692-.3-1.64-.672-2.846-1.087a35.828,35.828,0,0,1-4.328-1.759,7.969,7.969,0,0,1-2.885-2.53,8.234,8.234,0,0,1,.059-8.676,8.211,8.211,0,0,1,3.5-2.786,12.646,12.646,0,0,1,5.118-.968,11.461,11.461,0,0,1,7.411,2.213,8.421,8.421,0,0,1,3.1,6.087h-7.312a3.792,3.792,0,0,0-1.008-2.194,2.969,2.969,0,0,0-2.194-.81,2.872,2.872,0,0,0-1.917.632,2.3,2.3,0,0,0-.731,1.858,2.359,2.359,0,0,0,.652,1.68,5.246,5.246,0,0,0,1.64,1.126c.652.3,1.6.652,2.846,1.107a31.392,31.392,0,0,1,4.387,1.8,8.458,8.458,0,0,1,2.925,2.589,7.428,7.428,0,0,1,1.225,4.427A7.754,7.754,0,0,1,2217.682,222.784Z" transform="translate(-1893.998 -198.2)" fill="#fff"/>
        </g>
        <g id="Group_334" data-name="Group 334" transform="translate(128.217 76.282)">
          <path id="Path_284" data-name="Path 284" d="M667.91,413.4l-3.142,12.233h-4.19l-2.213-8.2-2.233,8.2h-4.19L648.8,413.4h3.755l1.621,8.814,2.273-8.814h3.992l2.352,8.834,1.621-8.834Z" transform="translate(-648.8 -407.985)" fill="#fff"/>
          <path id="Path_285" data-name="Path 285" d="M763.426,398.537a5.579,5.579,0,0,1,1.245,3.854V409.5h-3.755v-6.66a2.683,2.683,0,0,0-.652-1.917,2.277,2.277,0,0,0-1.719-.692,2.354,2.354,0,0,0-1.818.731,2.864,2.864,0,0,0-.672,2.055v6.5H752.3V393.3h3.755v6.225a4.147,4.147,0,0,1,1.561-1.739,4.66,4.66,0,0,1,2.45-.632A4.218,4.218,0,0,1,763.426,398.537Z" transform="translate(-731.846 -391.857)" fill="#fff"/>
          <path id="Path_286" data-name="Path 286" d="M836.434,419.637h-8.5a2.722,2.722,0,0,0,.711,1.976,2.288,2.288,0,0,0,1.621.613,2.254,2.254,0,0,0,1.383-.415,2.011,2.011,0,0,0,.731-1.067h3.972a5.15,5.15,0,0,1-1.047,2.312,5.724,5.724,0,0,1-2.055,1.6,6.393,6.393,0,0,1-2.786.573,6.717,6.717,0,0,1-3.2-.751,5.355,5.355,0,0,1-2.174-2.174,6.68,6.68,0,0,1-.79-3.34,6.836,6.836,0,0,1,.771-3.34,5.355,5.355,0,0,1,2.174-2.174,6.5,6.5,0,0,1,3.2-.751,6.717,6.717,0,0,1,3.2.751,5.075,5.075,0,0,1,2.134,2.095,6.263,6.263,0,0,1,.652,4.091Zm-4.348-3.379a2.636,2.636,0,0,0-3.379,0,2.58,2.58,0,0,0-.771,1.8h4.8A2.2,2.2,0,0,0,832.086,416.257Z" transform="translate(-789.617 -407.424)" fill="#fff"/>
          <path id="Path_287" data-name="Path 287" d="M901.653,413.452a4.647,4.647,0,0,1,2.411-.652v3.992H903a3.782,3.782,0,0,0-2.312.632,2.543,2.543,0,0,0-.83,2.154v5.573H896.1V412.919h3.755v2.312A5.163,5.163,0,0,1,901.653,413.452Z" transform="translate(-847.228 -407.504)" fill="#fff"/>
          <path id="Path_288" data-name="Path 288" d="M953.334,419.637h-8.5a2.722,2.722,0,0,0,.711,1.976,2.288,2.288,0,0,0,1.62.613,2.254,2.254,0,0,0,1.383-.415,2.01,2.01,0,0,0,.731-1.067h3.972a5.15,5.15,0,0,1-1.047,2.312,5.722,5.722,0,0,1-2.055,1.6,6.393,6.393,0,0,1-2.786.573,6.718,6.718,0,0,1-3.2-.751,5.356,5.356,0,0,1-2.174-2.174,6.679,6.679,0,0,1-.791-3.34,6.837,6.837,0,0,1,.771-3.34,5.357,5.357,0,0,1,2.174-2.174,6.5,6.5,0,0,1,3.2-.751,6.717,6.717,0,0,1,3.2.751,5.075,5.075,0,0,1,2.134,2.095,6.166,6.166,0,0,1,.751,3.1A3.567,3.567,0,0,1,953.334,419.637Zm-4.328-3.379a2.636,2.636,0,0,0-3.379,0,2.58,2.58,0,0,0-.771,1.8h4.8A2.2,2.2,0,0,0,949.006,416.257Z" transform="translate(-883.416 -407.424)" fill="#fff"/>
          <path id="Path_289" data-name="Path 289" d="M1039.787,397.666a3.6,3.6,0,0,1,1.462,1.739V393.2H1045v16.225h-3.755v-2.213a3.8,3.8,0,0,1-1.462,1.739,4.518,4.518,0,0,1-2.411.632,5.024,5.024,0,0,1-2.707-.751,5.205,5.205,0,0,1-1.877-2.174,8.409,8.409,0,0,1,0-6.68,5.329,5.329,0,0,1,1.877-2.174,4.859,4.859,0,0,1,2.707-.751A4.339,4.339,0,0,1,1039.787,397.666Zm-3.142,3.458a3.656,3.656,0,0,0,0,4.387,2.743,2.743,0,0,0,3.873-.02,3,3,0,0,0,.751-2.174,3.057,3.057,0,0,0-.751-2.174,2.564,2.564,0,0,0-1.937-.81A2.49,2.49,0,0,0,1036.645,401.125Z" transform="translate(-956.352 -391.777)" fill="#fff"/>
          <path id="Path_290" data-name="Path 290" d="M1119.534,419.637h-8.5a2.723,2.723,0,0,0,.711,1.976,2.288,2.288,0,0,0,1.621.613,2.254,2.254,0,0,0,1.383-.415,2.011,2.011,0,0,0,.731-1.067h3.972a5.151,5.151,0,0,1-1.047,2.312,5.721,5.721,0,0,1-2.055,1.6,6.392,6.392,0,0,1-2.786.573,6.717,6.717,0,0,1-3.2-.751,5.356,5.356,0,0,1-2.174-2.174,6.68,6.68,0,0,1-.791-3.34,6.837,6.837,0,0,1,.771-3.34,5.355,5.355,0,0,1,2.174-2.174,6.5,6.5,0,0,1,3.2-.751,6.717,6.717,0,0,1,3.2.751,5.075,5.075,0,0,1,2.134,2.095,6.167,6.167,0,0,1,.751,3.1A3.571,3.571,0,0,1,1119.534,419.637Zm-4.328-3.379a2.636,2.636,0,0,0-3.379,0,2.58,2.58,0,0,0-.771,1.8h4.782A2.253,2.253,0,0,0,1115.206,416.257Z" transform="translate(-1016.771 -407.424)" fill="#fff"/>
          <path id="Path_291" data-name="Path 291" d="M1185.536,413.525a5.05,5.05,0,0,1,1.739,3.063h-3.518a1.906,1.906,0,0,0-.692-1.166,2.147,2.147,0,0,0-1.344-.435,1.527,1.527,0,0,0-.968.277.945.945,0,0,0-.336.771.891.891,0,0,0,.613.85,9.288,9.288,0,0,0,1.9.573,17.9,17.9,0,0,1,2.312.672,3.725,3.725,0,0,1,1.561,1.107,3.088,3.088,0,0,1,.652,2.055,3.139,3.139,0,0,1-.573,1.858,3.706,3.706,0,0,1-1.64,1.265,6.254,6.254,0,0,1-2.549.455,6.4,6.4,0,0,1-3.972-1.107,4.644,4.644,0,0,1-1.818-3.142h3.616a1.594,1.594,0,0,0,.672,1.206,2.545,2.545,0,0,0,1.5.415,1.419,1.419,0,0,0,.968-.3,1,1,0,0,0,.336-.771.929.929,0,0,0-.613-.909,10.7,10.7,0,0,0-1.957-.573,16.414,16.414,0,0,1-2.233-.613,3.688,3.688,0,0,1-1.522-1.067,3.039,3.039,0,0,1-.632-2.016,3.315,3.315,0,0,1,1.245-2.668,5.506,5.506,0,0,1,3.537-1.028A6.017,6.017,0,0,1,1185.536,413.525Z" transform="translate(-1072.536 -407.103)" fill="#fff"/>
          <path id="Path_292" data-name="Path 292" d="M1239.713,386.553a2.649,2.649,0,0,1,3.241,0,1.828,1.828,0,0,1,.613,1.423,1.747,1.747,0,0,1-.613,1.383,2.649,2.649,0,0,1-3.241,0,1.774,1.774,0,0,1-.613-1.383A1.828,1.828,0,0,1,1239.713,386.553Zm3.478,4.861v12.233h-3.755V391.415Z" transform="translate(-1122.444 -386)" fill="#fff"/>
          <path id="Path_293" data-name="Path 293" d="M1277.648,413.308a3.748,3.748,0,0,1,1.482,1.739v-2.213h3.735v12.173a7.059,7.059,0,0,1-.652,3.083,4.971,4.971,0,0,1-2.016,2.174,6.58,6.58,0,0,1-3.379.81,6.981,6.981,0,0,1-4.427-1.3,5.29,5.29,0,0,1-1.976-3.537h3.715a1.822,1.822,0,0,0,.81,1.166,2.925,2.925,0,0,0,1.64.415,2.6,2.6,0,0,0,1.877-.672,2.837,2.837,0,0,0,.711-2.134v-2.154a3.846,3.846,0,0,1-1.482,1.739,4.518,4.518,0,0,1-2.411.632,5.024,5.024,0,0,1-2.708-.751,5.2,5.2,0,0,1-1.877-2.174,8.407,8.407,0,0,1,0-6.68,5.328,5.328,0,0,1,1.877-2.174,4.859,4.859,0,0,1,2.708-.751A4.292,4.292,0,0,1,1277.648,413.308Zm-3.162,3.458a3.656,3.656,0,0,0,0,4.387,2.743,2.743,0,0,0,3.873-.02,3,3,0,0,0,.751-2.174,3.056,3.056,0,0,0-.751-2.174,2.564,2.564,0,0,0-1.937-.81A2.519,2.519,0,0,0,1274.486,416.766Z" transform="translate(-1147.238 -407.418)" fill="#fff"/>
          <path id="Path_294" data-name="Path 294" d="M1359.226,414.181a5.579,5.579,0,0,1,1.245,3.854v7.114h-3.755v-6.66a2.684,2.684,0,0,0-.652-1.917,2.277,2.277,0,0,0-1.719-.692,2.354,2.354,0,0,0-1.818.731,2.864,2.864,0,0,0-.672,2.055v6.5H1348.1V412.936h3.755v2.233a4.148,4.148,0,0,1,1.561-1.739,4.66,4.66,0,0,1,2.45-.632A4.191,4.191,0,0,1,1359.226,414.181Z" transform="translate(-1209.904 -407.501)" fill="#fff"/>
          <path id="Path_295" data-name="Path 295" d="M1464.826,414.183a5.428,5.428,0,0,1,1.285,3.873v7.114h-3.735v-6.66a2.542,2.542,0,0,0-.632-1.818,2.248,2.248,0,0,0-1.7-.652,2.276,2.276,0,0,0-1.759.692,2.7,2.7,0,0,0-.652,1.937v6.5h-3.755v-6.66a2.533,2.533,0,0,0-.613-1.818,2.2,2.2,0,0,0-1.68-.652,2.339,2.339,0,0,0-1.779.672,2.72,2.72,0,0,0-.652,1.956v6.5H1445.4V412.938h3.755v2.075a3.561,3.561,0,0,1,1.482-1.62,4.5,4.5,0,0,1,2.332-.593,4.659,4.659,0,0,1,2.47.652,4.03,4.03,0,0,1,1.62,1.858,4.95,4.95,0,0,1,1.739-1.818,4.572,4.572,0,0,1,2.451-.672A4.5,4.5,0,0,1,1464.826,414.183Z" transform="translate(-1287.975 -407.504)" fill="#fff"/>
          <path id="Path_296" data-name="Path 296" d="M1571.834,419.637h-8.5a2.723,2.723,0,0,0,.712,1.976,2.288,2.288,0,0,0,1.62.613,2.254,2.254,0,0,0,1.383-.415,2.011,2.011,0,0,0,.731-1.067h3.972a5.151,5.151,0,0,1-1.047,2.312,5.723,5.723,0,0,1-2.055,1.6,6.392,6.392,0,0,1-2.786.573,6.717,6.717,0,0,1-3.2-.751,5.356,5.356,0,0,1-2.174-2.174,6.682,6.682,0,0,1-.791-3.34,6.838,6.838,0,0,1,.771-3.34,5.356,5.356,0,0,1,2.174-2.174,6.5,6.5,0,0,1,3.2-.751,6.717,6.717,0,0,1,3.2.751,5.075,5.075,0,0,1,2.134,2.095,6.167,6.167,0,0,1,.751,3.1A3.567,3.567,0,0,1,1571.834,419.637Zm-4.328-3.379a2.636,2.636,0,0,0-3.38,0,2.58,2.58,0,0,0-.771,1.8h4.782A2.128,2.128,0,0,0,1567.506,416.257Z" transform="translate(-1379.687 -407.424)" fill="#fff"/>
          <path id="Path_297" data-name="Path 297" d="M1640.534,419.637h-8.5a2.723,2.723,0,0,0,.711,1.976,2.288,2.288,0,0,0,1.621.613,2.254,2.254,0,0,0,1.383-.415,2.011,2.011,0,0,0,.731-1.067h3.972a5.151,5.151,0,0,1-1.047,2.312,5.721,5.721,0,0,1-2.055,1.6,6.392,6.392,0,0,1-2.786.573,6.717,6.717,0,0,1-3.2-.751,5.355,5.355,0,0,1-2.174-2.174,6.68,6.68,0,0,1-.791-3.34,6.837,6.837,0,0,1,.771-3.34,5.355,5.355,0,0,1,2.174-2.174,6.5,6.5,0,0,1,3.2-.751,6.717,6.717,0,0,1,3.2.751,5.075,5.075,0,0,1,2.134,2.095,6.167,6.167,0,0,1,.751,3.1A3.571,3.571,0,0,1,1640.534,419.637Zm-4.328-3.379a2.636,2.636,0,0,0-3.379,0,2.58,2.58,0,0,0-.771,1.8h4.782A2.128,2.128,0,0,0,1636.206,416.257Z" transform="translate(-1434.81 -407.424)" fill="#fff"/>
          <path id="Path_298" data-name="Path 298" d="M1703.445,410.135v3.221h-1.68a4.808,4.808,0,0,1-3.34-1.067,4.524,4.524,0,0,1-1.186-3.518v-4.506h-1.64V401.1h1.64v-3h3.755v3h2.451v3.162h-2.451v4.565a1.076,1.076,0,0,0,1.3,1.285l1.146.02Z" transform="translate(-1488.73 -395.709)" fill="#fff"/>
          <path id="Path_299" data-name="Path 299" d="M1752.336,413.525a5.048,5.048,0,0,1,1.739,3.063h-3.518a1.906,1.906,0,0,0-.692-1.166,2.147,2.147,0,0,0-1.344-.435,1.528,1.528,0,0,0-.969.277.945.945,0,0,0-.336.771.891.891,0,0,0,.613.85,9.29,9.29,0,0,0,1.9.573,17.894,17.894,0,0,1,2.312.672,3.724,3.724,0,0,1,1.561,1.107,3.088,3.088,0,0,1,.652,2.055,3.14,3.14,0,0,1-.573,1.858,3.706,3.706,0,0,1-1.64,1.265,6.254,6.254,0,0,1-2.549.455,6.4,6.4,0,0,1-3.972-1.107,4.645,4.645,0,0,1-1.818-3.142h3.616a1.594,1.594,0,0,0,.672,1.206,2.545,2.545,0,0,0,1.5.415,1.419,1.419,0,0,0,.968-.3,1,1,0,0,0,.336-.771.929.929,0,0,0-.613-.909,10.7,10.7,0,0,0-1.957-.573,16.411,16.411,0,0,1-2.233-.613,3.688,3.688,0,0,1-1.522-1.067,3.039,3.039,0,0,1-.632-2.016,3.315,3.315,0,0,1,1.245-2.668,5.5,5.5,0,0,1,3.537-1.028A6.018,6.018,0,0,1,1752.336,413.525Z" transform="translate(-1527.325 -407.103)" fill="#fff"/>
          <path id="Path_300" data-name="Path 300" d="M1831.715,391.841a1.949,1.949,0,0,0-1.344.4,1.77,1.77,0,0,0-.454,1.265h2.213v3.162h-2.213v9.091h-3.755v-9.091H1824.7V393.5h1.462v-.138a4.561,4.561,0,0,1,1.324-3.518,5.445,5.445,0,0,1,3.854-1.245c.356,0,.613,0,.791.02v3.221Z" transform="translate(-1592.317 -388.086)" fill="#fff"/>
          <path id="Path_301" data-name="Path 301" d="M1882.151,413.32v12.233h-3.774v-2.213a4.218,4.218,0,0,1-1.561,1.719,4.638,4.638,0,0,1-2.431.632,4.254,4.254,0,0,1-3.34-1.4,5.579,5.579,0,0,1-1.245-3.854V413.32h3.735v6.64a2.7,2.7,0,0,0,.652,1.937,2.555,2.555,0,0,0,3.537-.04,2.949,2.949,0,0,0,.652-2.055v-6.5h3.774Z" transform="translate(-1628.505 -407.905)" fill="#fff"/>
          <path id="Path_302" data-name="Path 302" d="M1956.426,414.181a5.579,5.579,0,0,1,1.245,3.854v7.114h-3.755v-6.66a2.683,2.683,0,0,0-.652-1.917,2.277,2.277,0,0,0-1.719-.692,2.354,2.354,0,0,0-1.818.731,2.863,2.863,0,0,0-.672,2.055v6.5H1945.3V412.936h3.755v2.233a4.147,4.147,0,0,1,1.561-1.739,4.66,4.66,0,0,1,2.45-.632A4.191,4.191,0,0,1,1956.426,414.181Z" transform="translate(-1689.084 -407.501)" fill="#fff"/>
          <path id="Path_303" data-name="Path 303" d="M2027.338,413.9a5.807,5.807,0,0,1,2.016,3.577h-3.972a2.045,2.045,0,0,0-.731-1.225,2.145,2.145,0,0,0-1.383-.435,2,2,0,0,0-1.621.771,4.4,4.4,0,0,0,0,4.545,2,2,0,0,0,1.621.771,2.145,2.145,0,0,0,1.383-.435,2.211,2.211,0,0,0,.731-1.225h3.972a5.753,5.753,0,0,1-2.016,3.577,6.083,6.083,0,0,1-3.972,1.3,6.717,6.717,0,0,1-3.2-.751,5.356,5.356,0,0,1-2.174-2.174,6.682,6.682,0,0,1-.79-3.34,6.838,6.838,0,0,1,.771-3.34,5.356,5.356,0,0,1,2.174-2.174,6.5,6.5,0,0,1,3.2-.751A6.1,6.1,0,0,1,2027.338,413.9Z" transform="translate(-1746.775 -407.343)" fill="#fff"/>
          <path id="Path_304" data-name="Path 304" d="M2091.746,410.135v3.221h-1.68a4.808,4.808,0,0,1-3.34-1.067,4.524,4.524,0,0,1-1.186-3.518v-4.506h-1.64V401.1h1.64v-3h3.755v3h2.45v3.162h-2.45v4.565a1.076,1.076,0,0,0,1.3,1.285l1.146.02Z" transform="translate(-1800.294 -395.709)" fill="#fff"/>
          <path id="Path_305" data-name="Path 305" d="M2133.113,386.553a2.65,2.65,0,0,1,3.241,0,1.828,1.828,0,0,1,.613,1.423,1.747,1.747,0,0,1-.613,1.383,2.649,2.649,0,0,1-3.241,0,1.774,1.774,0,0,1-.613-1.383A1.827,1.827,0,0,1,2133.113,386.553Zm3.5,4.861v12.233h-3.755V391.415Z" transform="translate(-1839.29 -386)" fill="#fff"/>
          <path id="Path_306" data-name="Path 306" d="M2172.724,413.447a5.548,5.548,0,0,1,2.253,2.174,7.136,7.136,0,0,1,0,6.68,5.543,5.543,0,0,1-2.253,2.174,6.729,6.729,0,0,1-3.261.751,7.018,7.018,0,0,1-3.261-.751,5.6,5.6,0,0,1-2.273-2.174,7.136,7.136,0,0,1,0-6.68,5.473,5.473,0,0,1,2.273-2.174,6.837,6.837,0,0,1,3.261-.751A6.514,6.514,0,0,1,2172.724,413.447Zm-5.059,3.261a3.124,3.124,0,0,0-.731,2.253,3.073,3.073,0,0,0,.731,2.233,2.4,2.4,0,0,0,1.818.771,2.362,2.362,0,0,0,1.8-.771,3.2,3.2,0,0,0,.731-2.233,3.125,3.125,0,0,0-.731-2.253,2.507,2.507,0,0,0-3.616,0Z" transform="translate(-1863.842 -407.419)" fill="#fff"/>
          <path id="Path_307" data-name="Path 307" d="M2248.326,414.181a5.579,5.579,0,0,1,1.245,3.854v7.114h-3.755v-6.66a2.682,2.682,0,0,0-.652-1.917,2.276,2.276,0,0,0-1.719-.692,2.353,2.353,0,0,0-1.818.731,2.863,2.863,0,0,0-.672,2.055v6.5H2237.2V412.936h3.755v2.233a4.151,4.151,0,0,1,1.561-1.739,4.66,4.66,0,0,1,2.45-.632A4.192,4.192,0,0,1,2248.326,414.181Z" transform="translate(-1923.299 -407.501)" fill="#fff"/>
        </g>
      </g>
    </g>
  </g>
</svg>
