<?xml version="1.0" encoding="UTF-8"?><svg id="a" xmlns="http://www.w3.org/2000/svg" width="1616" height="470" viewBox="0 0 1616 470"><polygon id="b" points="193.04 15.59 3.7 124.9 3.7 343.53 193.04 452.84 382.37 343.53 382.37 124.9 193.04 15.59" fill="#29abe2"/><polygon id="c" points="382.26 125.17 192.97 15.88 192.97 453.08 382.26 343.79 382.26 125.17" fill="#369"/><polygon id="d" points="192.92 54.84 39.56 143.38 39.56 320.47 192.92 409.01 346.28 320.47 346.28 143.38 192.92 54.84" fill="#353535"/><path d="M219.38,326.4l-43.88-76.97-11.23-.02-.17,76.88-49.23-.11,.46-203.56,84.07,.19c16.12,.04,29.74,2.85,40.87,8.44,11.12,5.59,19.45,13.24,25,22.95,5.54,9.71,8.3,20.8,8.28,33.27-.03,14.78-4.14,27.34-12.32,37.69s-20.05,17.42-35.61,21.23l48.19,80.15-54.42-.12v-.02Zm-55.04-110.69l30.52,.07c9.79,.02,16.99-2.12,21.61-6.43s6.93-10.68,6.95-19.13c.02-8.06-2.32-14.4-7.01-19.02-4.7-4.62-11.84-6.94-21.44-6.96l-30.52-.07-.12,51.54h0Z" fill="#efefef"/><g><path d="M463.18,144.44c22.01,0,33.01,12.67,33.01,28.28,0,11.26-6.14,21.88-19.96,25.98l20.73,35.57h-24.7l-18.68-33.91h-5.25v33.91h-21.88v-89.83h36.73Zm-1.28,18.17h-13.56v22.27h13.56c8.19,0,12.03-4.22,12.03-11.26,0-6.65-3.84-11-12.03-11h0Z" fill="#e5e7eb"/><path d="M565.81,218.4h-33.53l-5.37,15.87h-22.9l32.5-89.83h25.34l32.5,89.83h-23.16l-5.37-15.87h-.01Zm-16.76-49.78l-11,32.89h22.14l-11.13-32.89h-.01Z" fill="#e5e7eb"/><path d="M604.2,144.44h25.85l25.21,62.19,24.95-62.19h25.72v89.83h-21.88v-53.87l-20.09,53.87h-17.66l-20.22-54v54h-21.88v-89.83Z" fill="#e5e7eb"/><path d="M764.16,235.17c-25.46,0-46.19-19.07-46.19-46.07s20.73-45.94,46.19-45.94,45.94,18.94,45.94,45.94-20.47,46.07-45.94,46.07h0Zm0-19.96c14.33,0,23.67-10.36,23.67-26.1s-9.34-26.1-23.67-26.1-23.8,10.11-23.8,26.1,9.21,26.1,23.8,26.1Z" fill="#e5e7eb"/><path d="M902.62,144.44v89.83h-21.88l-36.6-55.41v55.41h-21.88v-89.83h21.88l36.6,55.66v-55.66h21.88Z" fill="#e5e7eb"/><path d="M974.41,218.4h-33.53l-5.37,15.87h-22.91l32.5-89.83h25.34l32.5,89.83h-23.16l-5.38-15.87h0Zm-16.76-49.78l-11,32.89h22.14l-11.13-32.89h-.01Z" fill="#e5e7eb"/><path d="M1008.07,144.44h23.42l12.92,65.39,16-65.39h24.06l15.35,65.39,13.05-65.39h23.54l-23.42,89.83h-26.49l-14.33-59.12-14.84,59.12h-26.49l-22.78-89.83h0Z" fill="#e5e7eb"/><path d="M1189.91,235.17c-25.46,0-46.19-19.07-46.19-46.07s20.73-45.94,46.19-45.94,45.94,18.94,45.94,45.94-20.47,46.07-45.94,46.07h0Zm0-19.96c14.33,0,23.67-10.36,23.67-26.1s-9.34-26.1-23.67-26.1-23.8,10.11-23.8,26.1,9.21,26.1,23.8,26.1Z" fill="#e5e7eb"/><path d="M1284.73,144.44c22.01,0,33.01,12.67,33.01,28.28,0,11.26-6.14,21.88-19.96,25.98l20.73,35.57h-24.7l-18.68-33.91h-5.25v33.91h-21.88v-89.83h36.73Zm-1.28,18.17h-13.56v22.27h13.56c8.19,0,12.03-4.22,12.03-11.26,0-6.65-3.84-11-12.03-11h0Z" fill="#e5e7eb"/><path d="M1353.32,194.6v39.67h-21.88v-89.83h21.88v39.41l29.94-39.41h25.72l-34.81,44.02,36.08,45.81h-26.74l-30.2-39.67h.01Z" fill="#e5e7eb"/><path d="M1453.13,235.17c-19.32,0-34.42-9.6-35.06-27.77h23.29c.64,6.91,4.99,10.24,11.13,10.24s10.49-3.2,10.49-8.45c0-16.63-44.91-7.68-44.66-39.54,0-17.02,13.95-26.49,32.76-26.49s32.76,9.72,33.65,26.87h-23.67c-.38-5.76-4.48-9.21-10.37-9.34-5.25-.13-9.21,2.56-9.21,8.19,0,15.61,44.4,8.57,44.4,38.64,0,15.1-11.77,27.64-32.76,27.64h.01Z" fill="#e5e7eb"/></g><g><path d="M418.82,280.1h12.15l5.61,28.34,6.68-28.34h12.86l6.75,28.2,5.54-28.2h11.44l-10.73,39.63h-13.42l-6.25-25.71-6.46,25.71h-13.35l-10.8-39.63h-.02Z" fill="#e5e7eb"/><path d="M484.44,267.17h12.15v18.25c2.42-3.41,6.75-5.75,12.22-5.75,9.02,0,15.06,6.25,15.06,16.91v23.16h-12.07v-21.52c0-5.4-2.98-8.38-7.6-8.38s-7.6,2.98-7.6,8.38v21.52h-12.15v-52.56h0Z" fill="#e5e7eb"/><path d="M549.93,320.3c-11.65,0-20.03-7.81-20.03-20.39s8.24-20.38,20.03-20.38,19.75,7.67,19.75,19.75c0,1.14-.07,2.34-.21,3.55h-27.49c.43,5.19,3.62,7.6,7.53,7.6,3.41,0,5.33-1.71,6.32-3.84h12.93c-1.92,7.74-8.95,13.71-18.82,13.71h-.01Zm-7.88-24.22h15.2c0-4.33-3.41-6.82-7.46-6.82s-7.03,2.42-7.74,6.82Z" fill="#e5e7eb"/><path d="M588.21,319.74h-12.15v-39.63h12.15v6.61c2.77-4.19,7.1-7.03,12.43-7.03v12.86h-3.34c-5.75,0-9.09,1.99-9.09,8.81v18.38Z" fill="#e5e7eb"/><path d="M624.07,320.3c-11.65,0-20.03-7.81-20.03-20.39s8.24-20.38,20.03-20.38,19.75,7.67,19.75,19.75c0,1.14-.07,2.34-.21,3.55h-27.49c.43,5.19,3.62,7.6,7.53,7.6,3.41,0,5.33-1.71,6.32-3.84h12.93c-1.92,7.74-8.95,13.71-18.82,13.71h-.01Zm-7.88-24.22h15.2c0-4.33-3.41-6.82-7.46-6.82s-7.03,2.42-7.74,6.82Z" fill="#e5e7eb"/><path d="M680.32,279.53c5.26,0,9.8,2.41,12.22,6.04v-18.4h12.15v52.56h-12.15v-5.68c-2.2,3.62-6.39,6.25-12.22,6.25-9.73,0-17.47-7.96-17.47-20.46s7.74-20.31,17.47-20.31h0Zm3.55,10.58c-4.55,0-8.67,3.41-8.67,9.73s4.12,9.87,8.67,9.87,8.67-3.48,8.67-9.8-4.05-9.8-8.67-9.8h0Z" fill="#e5e7eb"/><path d="M731.1,320.3c-11.65,0-20.03-7.81-20.03-20.39s8.24-20.38,20.03-20.38,19.75,7.67,19.75,19.75c0,1.14-.07,2.34-.21,3.55h-27.49c.43,5.19,3.62,7.6,7.53,7.6,3.41,0,5.33-1.71,6.32-3.84h12.93c-1.92,7.74-8.95,13.71-18.82,13.71h-.01Zm-7.88-24.22h15.2c0-4.33-3.41-6.82-7.46-6.82s-7.03,2.42-7.74,6.82Z" fill="#e5e7eb"/><path d="M773.36,320.3c-10.58,0-17.69-5.9-18.25-13.57h12c.28,2.77,2.77,4.62,6.11,4.62,3.12,0,4.76-1.42,4.76-3.2,0-6.39-21.59-1.78-21.59-16.34,0-6.75,5.75-12.29,16.12-12.29s15.91,5.68,16.69,13.5h-11.22c-.36-2.7-2.42-4.48-5.83-4.48-2.84,0-4.4,1.14-4.4,3.05,0,6.32,21.45,1.85,21.66,16.62,0,6.89-6.11,12.08-16.05,12.08h0Z" fill="#e5e7eb"/><path d="M795.73,269.45c0-3.69,2.91-6.61,7.25-6.61s7.17,2.91,7.17,6.61-2.91,6.53-7.17,6.53-7.25-2.91-7.25-6.53Zm1.14,10.65h12.15v39.63h-12.15v-39.63Z" fill="#e5e7eb"/><path d="M832.88,279.53c5.82,0,10.09,2.63,12.22,6.18v-5.61h12.15v39.56c0,10.58-6.11,19.6-19.82,19.6-11.79,0-19.46-5.97-20.53-15.41h12c.78,2.98,3.76,4.9,7.96,4.9,4.62,0,8.24-2.41,8.24-9.09v-5.61c-2.2,3.48-6.39,6.25-12.22,6.25-9.73,0-17.47-7.96-17.47-20.46s7.74-20.31,17.47-20.31h0Zm3.55,10.58c-4.55,0-8.67,3.41-8.67,9.73s4.12,9.87,8.67,9.87,8.67-3.48,8.67-9.8-4.05-9.8-8.67-9.8h0Z" fill="#e5e7eb"/><path d="M893.39,298.21c0-5.4-2.98-8.38-7.6-8.38s-7.6,2.98-7.6,8.38v21.52h-12.15v-39.63h12.15v5.26c2.42-3.34,6.68-5.68,12-5.68,9.16,0,15.27,6.25,15.27,16.91v23.16h-12.07v-21.54Z" fill="#e5e7eb"/><path d="M983.59,298.21c0-5.18-2.98-8.03-7.6-8.03s-7.6,2.84-7.6,8.03v21.52h-12.08v-21.52c0-5.18-2.98-8.03-7.6-8.03s-7.6,2.84-7.6,8.03v21.52h-12.15v-39.63h12.15v4.97c2.34-3.2,6.39-5.4,11.58-5.4,5.97,0,10.8,2.63,13.5,7.39,2.63-4.19,7.6-7.39,13.35-7.39,9.8,0,16.12,6.25,16.12,16.91v23.16h-12.08v-21.52h0Z" fill="#e5e7eb"/><path d="M1021.79,320.3c-11.65,0-20.03-7.81-20.03-20.39s8.24-20.38,20.03-20.38,19.75,7.67,19.75,19.75c0,1.14-.07,2.34-.21,3.55h-27.49c.43,5.19,3.62,7.6,7.53,7.6,3.41,0,5.33-1.71,6.32-3.84h12.93c-1.92,7.74-8.95,13.71-18.82,13.71h-.01Zm-7.88-24.22h15.2c0-4.33-3.41-6.82-7.46-6.82s-7.03,2.42-7.74,6.82Z" fill="#e5e7eb"/><path d="M1065.54,320.3c-11.65,0-20.03-7.81-20.03-20.39s8.24-20.38,20.03-20.38,19.75,7.67,19.75,19.75c0,1.14-.07,2.34-.21,3.55h-27.49c.43,5.19,3.62,7.6,7.53,7.6,3.41,0,5.33-1.71,6.32-3.84h12.93c-1.92,7.74-8.95,13.71-18.82,13.71h-.01Zm-7.88-24.22h15.2c0-4.33-3.41-6.82-7.46-6.82s-7.03,2.42-7.74,6.82Z" fill="#e5e7eb"/><path d="M1093.59,290.19h-4.83v-10.09h4.83v-9.66h12.15v9.66h7.96v10.09h-7.96v15.91c0,2.34,.99,3.34,3.69,3.34h4.33v10.3h-6.18c-8.24,0-13.99-3.48-13.99-13.78v-15.77h0Z" fill="#e5e7eb"/><path d="M1136.63,320.3c-10.58,0-17.69-5.9-18.25-13.57h12c.28,2.77,2.77,4.62,6.11,4.62,3.12,0,4.76-1.42,4.76-3.2,0-6.39-21.59-1.78-21.59-16.34,0-6.75,5.75-12.29,16.12-12.29s15.91,5.68,16.69,13.5h-11.22c-.36-2.7-2.42-4.48-5.82-4.48-2.84,0-4.4,1.14-4.4,3.05,0,6.32,21.45,1.85,21.66,16.62,0,6.89-6.11,12.08-16.05,12.08h-.01Z" fill="#e5e7eb"/><path d="M1176.41,290.19h-4.4v-10.09h4.4v-1.14c0-10.37,6.39-15.48,18.47-14.85v10.3c-4.69-.28-6.32,1.14-6.32,5.33v.35h6.54v10.09h-6.54v29.55h-12.15v-29.55h0Z" fill="#e5e7eb"/><path d="M1239.9,319.74h-12.15v-5.4c-2.42,3.41-6.68,5.83-12,5.83-9.16,0-15.34-6.32-15.34-16.91v-23.16h12.08v21.52c0,5.4,3.05,8.38,7.6,8.38s7.67-2.98,7.67-8.38v-21.52h12.15v39.63h-.01Z" fill="#e5e7eb"/><path d="M1275.98,298.21c0-5.4-2.98-8.38-7.6-8.38s-7.6,2.98-7.6,8.38v21.52h-12.15v-39.63h12.15v5.26c2.42-3.34,6.68-5.68,12-5.68,9.16,0,15.27,6.25,15.27,16.91v23.16h-12.08v-21.54Z" fill="#e5e7eb"/><path d="M1313.97,279.53c9.94,0,16.98,5.47,19.04,14.92h-12.93c-.99-2.77-2.98-4.55-6.32-4.55-4.33,0-7.32,3.41-7.32,10.02s2.98,10.02,7.32,10.02c3.34,0,5.26-1.63,6.32-4.55h12.93c-2.06,9.16-9.09,14.92-19.04,14.92-11.65,0-19.89-7.81-19.89-20.39s8.24-20.38,19.89-20.38h0Z" fill="#e5e7eb"/><path d="M1341.39,290.19h-4.83v-10.09h4.83v-9.66h12.15v9.66h7.96v10.09h-7.96v15.91c0,2.34,.99,3.34,3.69,3.34h4.33v10.3h-6.18c-8.24,0-13.99-3.48-13.99-13.78v-15.77h0Z" fill="#e5e7eb"/><path d="M1367.17,269.45c0-3.69,2.91-6.61,7.25-6.61s7.17,2.91,7.17,6.61-2.91,6.53-7.17,6.53-7.25-2.91-7.25-6.53Zm1.14,10.65h12.15v39.63h-12.15v-39.63Z" fill="#e5e7eb"/><path d="M1407.3,320.3c-11.65,0-20.46-7.81-20.46-20.39s9.02-20.38,20.6-20.38,20.6,7.81,20.6,20.38-9.09,20.39-20.74,20.39Zm0-10.51c4.33,0,8.38-3.2,8.38-9.87s-3.98-9.87-8.24-9.87-8.24,3.12-8.24,9.87,3.69,9.87,8.1,9.87Z" fill="#e5e7eb"/><path d="M1461.84,298.21c0-5.4-2.98-8.38-7.6-8.38s-7.6,2.98-7.6,8.38v21.52h-12.15v-39.63h12.15v5.26c2.42-3.34,6.68-5.68,12-5.68,9.16,0,15.27,6.25,15.27,16.91v23.16h-12.08v-21.54Z" fill="#e5e7eb"/></g></svg>