<?xml version="1.0" encoding="utf-8" standalone="yes"?> <svg width="1026" height="1026" viewBox="-1 -1 27 27" xmlns="http://www.w3.org/2000/svg" xmlns:xlink="http://www.w3.org/1999/xlink" shape-rendering="crispEdges" id="qr code"><rect id="qr background" fill-opacity="1" fill="rgb(255, 255, 255)" x="-1" y="-1" width="27" height="27"></rect><path fill-opacity="1" fill="rgb(0, 0, 0)" id="qr dark pixels" fill-rule="evenodd" d="M 10 0 L 11 0 L 11 2 L 10 2 z M 12 0 L 14 0 L 14 2 L 13 2 L 13 1 L 12 1 z M 16 0 L 17 0 L 17 1 L 16 1 z M 8 1 L 9 1 L 9 2 L 8 2 z M 15 1 L 16 1 L 16 2 L 15 2 z M 12 2 L 13 2 L 13 3 L 14 3 L 14 2 L 15 2 L 15 3 L 17 3 L 17 8 L 16 8 L 16 6 L 15 6 L 15 5 L 16 5 L 16 4 L 15 4 L 15 5 L 14 5 L 14 4 L 12 4 z M 8 3 L 11 3 L 11 4 L 10 4 L 10 6 L 9 6 L 9 7 L 8 7 L 8 5 L 9 5 L 9 4 L 8 4 z M 11 5 L 14 5 L 14 6 L 13 6 L 13 7 L 12 7 L 12 6 L 11 6 z M 10 6 L 11 6 L 11 7 L 12 7 L 12 9 L 11 9 L 11 8 L 10 8 L 10 9 L 9 9 L 9 11 L 8 11 L 8 9 L 6 9 L 6 8 L 9 8 L 9 7 L 10 7 z M 14 6 L 15 6 L 15 8 L 14 8 z M 0 8 L 5 8 L 5 9 L 4 9 L 4 10 L 7 10 L 7 11 L 6 11 L 6 12 L 7 12 L 7 13 L 6 13 L 6 14 L 7 14 L 7 15 L 6 15 L 6 16 L 5 16 L 5 15 L 2 15 L 2 13 L 3 13 L 3 14 L 4 14 L 4 12 L 5 12 L 5 11 L 4 11 L 4 12 L 0 12 zM 2 9 L 3 9 L 3 11 L 2 11 z M 13 8 L 14 8 L 14 10 L 16 10 L 16 9 L 17 9 L 17 11 L 18 11 L 18 10 L 19 10 L 19 12 L 21 12 L 21 13 L 20 13 L 20 14 L 21 14 L 21 13 L 22 13 L 22 15 L 21 15 L 21 16 L 17 16 L 17 15 L 16 15 L 16 18 L 15 18 L 15 17 L 14 17 L 14 18 L 15 18 L 15 20 L 16 20 L 16 21 L 19 21 L 19 22 L 17 22 L 17 23 L 18 23 L 18 25 L 17 25 L 17 24 L 14 24 L 14 22 L 15 22 L 15 23 L 16 23 L 16 22 L 15 22 L 15 21 L 14 21 L 14 22 L 13 22 L 13 21 L 12 21 L 12 19 L 13 19 L 13 20 L 14 20 L 14 19 L 13 19 L 13 18 L 12 18 L 12 17 L 13 17 L 13 16 L 14 16 L 14 15 L 15 15 L 15 14 L 16 14 L 16 13 L 12 13 L 12 11 L 13 11 L 13 12 L 16 12 L 16 11 L 13 11 L 13 10 L 12 10 L 12 9 L 13 9 zM 17 13 L 19 13 L 19 15 L 18 15 L 18 14 L 17 14 z M 17 8 L 18 8 L 18 9 L 17 9 z M 19 8 L 20 8 L 20 10 L 19 10 z M 21 8 L 22 8 L 22 9 L 21 9 z M 23 8 L 24 8 L 24 10 L 25 10 L 25 13 L 24 13 L 24 14 L 25 14 L 25 16 L 24 16 L 24 15 L 23 15 L 23 13 L 22 13 L 22 12 L 24 12 L 24 11 L 23 11 z M 10 9 L 11 9 L 11 11 L 10 11 z M 20 10 L 22 10 L 22 11 L 20 11 z M 8 12 L 11 12 L 11 13 L 9 13 L 9 14 L 7 14 L 7 13 L 8 13 z M 0 13 L 1 13 L 1 17 L 0 17 z M 9 14 L 14 14 L 14 15 L 12 15 L 12 17 L 11 17 L 11 15 L 9 15 z M 2 16 L 4 16 L 4 17 L 2 17 z M 6 16 L 7 16 L 7 17 L 6 17 z M 22 16 L 23 16 L 23 17 L 22 17 z M 8 17 L 9 17 L 9 18 L 10 18 L 10 19 L 8 19 z M 21 17 L 22 17 L 22 18 L 21 18 z M 22 18 L 25 18 L 25 19 L 24 19 L 24 20 L 25 20 L 25 25 L 19 25 L 19 23 L 21 23 L 21 22 L 20 22 L 20 21 L 22 21 L 22 20 L 23 20 L 23 19 L 22 19 zM 23 22 L 24 22 L 24 24 L 22 24 L 22 23 L 23 23 z M 10 19 L 11 19 L 11 20 L 10 20 z M 21 19 L 22 19 L 22 20 L 21 20 z M 8 20 L 9 20 L 9 22 L 10 22 L 10 24 L 9 24 L 9 25 L 8 25 z M 11 22 L 13 22 L 13 23 L 12 23 L 12 24 L 13 24 L 13 25 L 11 25 z"></path><path id="qr squares" d="M0,0h7h0v0v7v0h0h-7h0v0v-7v0h0zM1,1h5h0v0v5v0h0h-5h0v0v-5v0h0zM2,2h3h0v0v3v0h0h-3h0v0v-3v0h0z M18,0h7h0v0v7v0h0h-7h0v0v-7v0h0zM19,1h5h0v0v5v0h0h-5h0v0v-5v0h0zM20,2h3h0v0v3v0h0h-3h0v0v-3v0h0z M0,18h7h0v0v7v0h0h-7h0v0v-7v0h0zM1,19h5h0v0v5v0h0h-5h0v0v-5v0h0zM2,20h3h0v0v3v0h0h-3h0v0v-3v0h0zM16,16h5h0v0v5v0h0h-5h0v0v-5v0h0zM17,17h3h0v0v3v0h0h-3h0v0v-3v0h0zM18,18h1h0v0v1v0h0h-1h0v0v-1v0h0z" fill-rule="evenodd" fill-opacity="1" fill="rgb(0, 0, 0)"></path></svg>