<?xml version="1.0" encoding="utf-8"?>
<!-- Generator: Adobe Illustrator 26.2.1, SVG Export Plug-In . SVG Version: 6.00 Build 0)  -->
<svg version="1.1" id="a" xmlns="http://www.w3.org/2000/svg" xmlns:xlink="http://www.w3.org/1999/xlink" x="0px" y="0px"
	 viewBox="0 0 445 470" style="enable-background:new 0 0 445 470;" xml:space="preserve">
<style type="text/css">
	.st0{fill:#29ABE2;}
	.st1{fill:#336699;}
	.st2{fill:#353535;}
	.st3{fill:#EFEFEF;}
</style>
<polygon id="b" class="st0" points="222.5,16.3 33.2,125.6 33.2,344.2 222.5,453.5 411.8,344.2 411.8,125.6 "/>
<polygon id="c" class="st1" points="411.7,125.8 222.4,16.5 222.4,453.7 411.7,344.5 "/>
<polygon id="d" class="st2" points="222.4,55.5 69,144 69,321.1 222.4,409.7 375.7,321.1 375.7,144 "/>
<path class="st3" d="M248.8,327.1l-43.9-77l-11.2,0l-0.2,76.9l-49.2-0.1l0.5-203.6l84.1,0.2c16.1,0,29.7,2.8,40.9,8.4
	c11.1,5.6,19.4,13.2,25,22.9c5.5,9.7,8.3,20.8,8.3,33.3c0,14.8-4.1,27.3-12.3,37.7s-20,17.4-35.6,21.2l48.2,80.2L248.8,327.1
	L248.8,327.1L248.8,327.1z M193.8,216.4l30.5,0.1c9.8,0,17-2.1,21.6-6.4s6.9-10.7,6.9-19.1c0-8.1-2.3-14.4-7-19
	c-4.7-4.6-11.8-6.9-21.4-7l-30.5-0.1L193.8,216.4L193.8,216.4L193.8,216.4z"/>
</svg>
